<svg xmlns="http://www.w3.org/2000/svg" viewBox="0 0 2348.84 1001.16">
  <defs>
    <filter id="shadow">
      <feDropShadow dx="0" dy="0" stdDeviation="3"/>
    </filter>
    <style>
      .cls-1 {
        fill: #df151a;
        filter: url(#shadow);
      }
      .cls-1, .cls-2, .cls-3 {
        stroke: #000;
        stroke-miterlimit: 10;
      }
      .cls-2 {
        fill: #fff;
        filter: url(#shadow);
      }
      .cls-3 {
        fill: #fff;
        filter: url(#shadow);
      }
    </style>
  </defs>
  <title>logo</title>
  <g id="Layer_2" data-name="Layer 2">
    <g id="Horizontal">
      <g id="Black_Monotone" data-name="Black Monotone">
        <g id="Mark">
          <path id="P" class="cls-1" d="M540.75,211.08V62.49L433.51.58l-433,250v500L177,852.46,158.8,742.91,86.29,701.05V300.11L433.51,99.64,455,112V839.61l85.79-49.53V543.47H737.84V324.87Zm111.31,246.6H540.75V310.13L652.06,374.4Z"/>
          <polygon id="V" class="cls-2" points="583.64 87.25 583.64 186.31 780.74 300.11 780.74 701.05 433.51 901.52 310.12 830.28 412.07 161.55 321.13 214.04 268.11 580.1 214.97 275.34 129.18 324.87 225.15 878.35 433.51 1000.58 866.52 750.58 866.52 250.58 583.64 87.25"/>
        </g>
        <path class="cls-3" d="M941,104h65.38l34.8,240.44L1076,104h63.28l-65.91,370.15h-66.44Z"/>
        <path class="cls-3" d="M1199.92,102.92h68.54l70.13,370.15h-64.33l-12.12-73.29h-58.53L1192,473.07h-62.22Zm52.73,238.86L1233.14,220l-20,121.8Z"/>
        <path class="cls-3" d="M1358.1,104h66.44c65.91,0,113.89,34.8,113.89,117.58v4.75c0,48-19,78.56-43.23,97l49.56,149.74h-68.55l-41.65-128.65h-12.13V473.07H1358.1Zm67.49,182.44c28,0,48.51-16.35,48.51-59.59v-4.22c0-46.4-22.14-58.52-50.09-58.52h-1.58V286.42Z"/>
        <path class="cls-3" d="M1568,104h64.33V411.91h68v61.16H1568Z"/>
        <path class="cls-3" d="M1775.18,102.92h68.55l70.13,370.15h-64.33l-12.13-73.29h-58.53l-11.6,73.29h-62.22Zm52.73,238.86L1808.4,220l-20,121.8Z"/>
        <path class="cls-3" d="M1933.37,104h60.11l64.85,186.65V104h62.75V473.07h-56.95l-68-195.62V473.07h-62.74Z"/>
        <path class="cls-3" d="M2159,104h60.11c82.26,0,129.19,59.58,129.19,178.22v12.65c0,118.64-46.93,178.22-129.19,178.22H2159Zm67,310c30.58,0,56.95-26.89,56.95-119.17V282.2C2283,189.92,2256.59,163,2226,163h-2.64V414Z"/>
        <path class="cls-3" d="M1036.19,528.36h57.48c70.13,0,119.16,38,119.16,124.44v1.06c0,83.31-46.4,122.85-111.78,127.6h-.53v116h-64.33Zm64.86,193.52c26.89-1.59,47.45-21.1,47.45-65.91v-1.06c0-46.93-17.92-67-45.87-67h-2.11V721.88Z"/>
        <path class="cls-3" d="M1239.2,528.36h64.33V836.3h68v61.16H1239.2Z"/>
        <path class="cls-3" d="M1446.42,527.31H1515l70.13,370.15h-64.33l-12.13-73.29h-58.53l-11.6,73.29h-62.22Zm52.73,238.86-19.51-121.81-20,121.81Z"/>
        <path class="cls-3" d="M1623.06,589.53h-45.35V528.36h155v61.17h-45.35V897.46h-64.33Z"/>
        <path class="cls-3" d="M1760.68,528.36H1825v369.1h-64.33Z"/>
        <path class="cls-3" d="M1864,528.36h60.11L1989,715V528.36h62.75v369.1h-56.95l-68-195.62V897.46H1864Z"/>
        <path class="cls-3" d="M2083.37,719.24V706.58c0-119.16,50.62-180.85,123.39-180.85,19.51,0,35.85,4.21,49,10.54v67c-15.82-9.49-30.06-15.82-46.93-15.82-36.91,0-60.11,36.91-60.11,116.53v17.93c0,96.49,28.47,118.63,54.83,118.63a26.2,26.2,0,0,0,5.8-.52V745.6h-31.63V688.13h90.16V884.28c-23.2,10-42.18,15.82-67,15.82C2136.63,900.1,2083.37,847.9,2083.37,719.24Z"/>
      </g>
    </g>
  </g>
</svg>